<?xml version="1.0" encoding="utf-8" ?>
<svg baseProfile="tiny" height="512px" version="1.2" width="512px" xmlns="http://www.w3.org/2000/svg" xmlns:ev="http://www.w3.org/2001/xml-events" xmlns:xlink="http://www.w3.org/1999/xlink"><defs /><path d="M 199,91 L 198,92 L 197,92 L 196,93 L 195,93 L 193,95 L 192,95 L 191,96 L 190,96 L 189,97 L 188,97 L 186,99 L 185,99 L 184,100 L 183,100 L 181,102 L 180,102 L 179,103 L 178,103 L 177,104 L 176,104 L 174,106 L 173,106 L 172,107 L 171,107 L 170,108 L 169,108 L 167,110 L 166,110 L 165,111 L 164,111 L 162,113 L 161,113 L 160,114 L 159,114 L 158,115 L 157,115 L 156,116 L 155,116 L 153,118 L 152,118 L 151,119 L 150,119 L 148,121 L 147,121 L 146,122 L 145,122 L 144,123 L 143,123 L 141,125 L 140,125 L 139,126 L 138,126 L 136,128 L 135,128 L 134,129 L 133,129 L 132,130 L 131,130 L 130,131 L 129,131 L 127,133 L 126,133 L 124,135 L 123,135 L 123,136 L 122,137 L 122,138 L 121,139 L 121,170 L 122,169 L 123,169 L 125,167 L 126,167 L 127,166 L 128,166 L 129,165 L 130,165 L 132,163 L 133,163 L 134,162 L 135,162 L 136,161 L 137,161 L 139,159 L 140,159 L 141,158 L 142,158 L 143,157 L 144,157 L 146,155 L 147,155 L 148,154 L 149,154 L 151,152 L 152,152 L 153,151 L 154,151 L 155,150 L 156,150 L 158,148 L 159,148 L 160,147 L 161,147 L 163,145 L 164,145 L 165,144 L 166,144 L 167,143 L 168,143 L 170,141 L 171,141 L 172,140 L 173,140 L 174,139 L 175,139 L 177,137 L 178,137 L 179,136 L 180,136 L 182,134 L 183,134 L 184,133 L 185,133 L 187,131 L 188,131 L 189,130 L 190,130 L 191,129 L 192,129 L 193,128 L 194,128 L 195,127 L 196,127 L 198,125 L 199,125 L 201,123 L 203,123 L 205,125 L 206,125 L 207,126 L 208,126 L 210,128 L 211,128 L 212,129 L 213,129 L 214,130 L 215,130 L 216,131 L 217,131 L 219,133 L 220,133 L 221,134 L 222,134 L 224,136 L 225,136 L 226,137 L 227,137 L 228,138 L 229,138 L 231,140 L 232,140 L 233,141 L 234,141 L 236,143 L 237,143 L 238,144 L 239,144 L 240,145 L 241,145 L 243,147 L 244,147 L 245,148 L 246,148 L 248,150 L 249,150 L 250,151 L 251,151 L 252,152 L 253,152 L 255,154 L 256,154 L 257,155 L 258,155 L 259,156 L 260,156 L 262,158 L 263,158 L 264,159 L 265,159 L 267,161 L 268,161 L 269,162 L 270,162 L 271,163 L 272,163 L 274,165 L 275,165 L 276,166 L 277,166 L 278,167 L 279,167 L 281,169 L 282,169 L 283,170 L 284,170 L 285,171 L 286,171 L 288,173 L 289,173 L 290,174 L 291,174 L 293,176 L 294,176 L 296,178 L 296,181 L 295,182 L 296,183 L 296,233 L 295,234 L 296,235 L 294,237 L 293,237 L 292,238 L 291,238 L 289,240 L 288,240 L 287,241 L 286,241 L 284,243 L 283,243 L 282,244 L 281,244 L 279,246 L 278,246 L 277,247 L 276,247 L 275,248 L 274,248 L 273,249 L 272,249 L 270,251 L 269,251 L 268,252 L 267,252 L 265,254 L 264,254 L 263,255 L 262,255 L 261,256 L 260,256 L 258,258 L 257,258 L 256,259 L 255,259 L 254,260 L 253,260 L 251,262 L 250,262 L 249,263 L 248,263 L 247,264 L 246,264 L 244,266 L 243,266 L 242,267 L 241,267 L 240,268 L 239,268 L 237,270 L 236,270 L 235,271 L 234,271 L 232,273 L 231,273 L 230,274 L 229,274 L 228,275 L 227,275 L 225,277 L 224,277 L 223,278 L 222,278 L 220,280 L 219,280 L 218,281 L 217,281 L 216,282 L 215,282 L 213,284 L 212,284 L 211,285 L 210,285 L 209,286 L 208,286 L 206,288 L 205,288 L 204,289 L 203,289 L 202,290 L 201,290 L 200,289 L 199,289 L 198,288 L 197,288 L 195,286 L 194,286 L 193,285 L 192,285 L 191,284 L 190,284 L 188,282 L 187,282 L 186,281 L 185,281 L 184,280 L 183,280 L 181,278 L 180,278 L 179,277 L 178,277 L 176,275 L 175,275 L 174,274 L 173,274 L 172,273 L 171,273 L 169,271 L 168,271 L 167,270 L 166,270 L 165,269 L 164,269 L 162,267 L 161,267 L 160,266 L 159,266 L 157,264 L 156,264 L 155,263 L 154,263 L 153,262 L 152,262 L 150,260 L 149,260 L 148,259 L 147,259 L 146,258 L 145,258 L 143,256 L 142,256 L 141,255 L 140,255 L 139,254 L 138,254 L 136,252 L 135,252 L 134,251 L 133,251 L 132,250 L 131,250 L 129,248 L 128,248 L 127,247 L 126,247 L 125,246 L 124,246 L 122,244 L 121,244 L 120,243 L 119,243 L 117,241 L 116,241 L 115,240 L 114,240 L 113,239 L 112,239 L 110,237 L 109,237 L 108,236 L 107,236 L 105,234 L 104,234 L 103,233 L 102,233 L 101,232 L 100,232 L 98,230 L 97,230 L 96,229 L 95,229 L 94,228 L 93,228 L 91,226 L 90,226 L 89,225 L 88,225 L 86,223 L 85,223 L 84,222 L 83,222 L 82,221 L 81,221 L 79,219 L 78,219 L 79,220 L 78,221 L 78,248 L 79,249 L 79,252 L 82,255 L 83,255 L 85,257 L 86,257 L 87,258 L 88,258 L 89,259 L 90,259 L 92,261 L 93,261 L 94,262 L 95,262 L 96,263 L 97,263 L 99,265 L 100,265 L 101,266 L 102,266 L 103,267 L 104,267 L 106,269 L 107,269 L 108,270 L 109,270 L 111,272 L 112,272 L 113,273 L 114,273 L 115,274 L 116,274 L 117,275 L 118,275 L 120,277 L 121,277 L 123,279 L 124,279 L 125,280 L 126,280 L 127,281 L 128,281 L 130,283 L 132,283 L 134,285 L 135,285 L 137,287 L 138,287 L 139,288 L 140,288 L 141,289 L 142,289 L 144,291 L 145,291 L 146,292 L 147,292 L 148,293 L 149,293 L 151,295 L 152,295 L 153,296 L 154,296 L 155,297 L 156,297 L 158,299 L 159,299 L 160,300 L 161,300 L 163,302 L 164,302 L 165,303 L 166,303 L 167,304 L 168,304 L 170,306 L 171,306 L 172,307 L 173,307 L 175,309 L 176,309 L 177,310 L 178,310 L 179,311 L 180,311 L 182,313 L 183,313 L 184,314 L 185,314 L 186,315 L 187,315 L 189,317 L 190,317 L 191,318 L 192,318 L 194,320 L 195,320 L 196,321 L 197,321 L 198,322 L 200,322 L 201,323 L 202,323 L 203,322 L 205,322 L 206,321 L 207,321 L 208,320 L 209,320 L 211,318 L 212,318 L 213,317 L 214,317 L 216,315 L 217,315 L 218,314 L 219,314 L 220,313 L 221,313 L 223,311 L 224,311 L 225,310 L 226,310 L 227,309 L 228,309 L 230,307 L 231,307 L 232,306 L 233,306 L 235,304 L 236,304 L 237,303 L 238,303 L 239,302 L 240,302 L 242,300 L 243,300 L 244,299 L 245,299 L 246,298 L 247,298 L 249,296 L 250,296 L 251,295 L 252,295 L 254,293 L 255,293 L 256,292 L 257,292 L 258,291 L 259,291 L 261,289 L 262,289 L 263,288 L 264,288 L 265,287 L 266,287 L 268,285 L 269,285 L 270,284 L 271,284 L 272,283 L 273,283 L 275,281 L 276,281 L 277,280 L 278,280 L 280,278 L 281,278 L 282,277 L 283,277 L 285,275 L 286,275 L 287,274 L 288,274 L 289,273 L 290,273 L 291,272 L 292,272 L 294,270 L 295,270 L 296,269 L 297,269 L 299,267 L 300,267 L 301,266 L 302,266 L 303,265 L 304,265 L 306,263 L 307,263 L 308,262 L 309,262 L 310,261 L 311,261 L 313,259 L 314,259 L 315,258 L 316,258 L 317,257 L 318,257 L 320,255 L 321,255 L 323,253 L 323,252 L 324,251 L 324,161 L 321,158 L 320,158 L 318,156 L 317,156 L 316,155 L 315,155 L 313,153 L 312,153 L 311,152 L 310,152 L 309,151 L 308,151 L 306,149 L 305,149 L 304,148 L 303,148 L 301,146 L 300,146 L 299,145 L 298,145 L 297,144 L 296,144 L 294,142 L 293,142 L 292,141 L 291,141 L 290,140 L 289,140 L 287,138 L 286,138 L 285,137 L 284,137 L 283,136 L 282,136 L 280,134 L 279,134 L 278,133 L 277,133 L 275,131 L 274,131 L 273,130 L 272,130 L 271,129 L 270,129 L 268,127 L 267,127 L 266,126 L 265,126 L 264,125 L 263,125 L 261,123 L 260,123 L 259,122 L 258,122 L 257,121 L 256,121 L 254,119 L 253,119 L 252,118 L 251,118 L 249,116 L 248,116 L 247,115 L 246,115 L 244,113 L 243,113 L 242,112 L 241,112 L 240,111 L 239,111 L 238,110 L 237,110 L 235,108 L 234,108 L 233,107 L 232,107 L 230,105 L 229,105 L 228,104 L 227,104 L 226,103 L 225,103 L 223,101 L 222,101 L 221,100 L 220,100 L 219,99 L 218,99 L 216,97 L 215,97 L 214,96 L 213,96 L 212,95 L 211,95 L 209,93 L 208,93 L 207,92 L 206,92 L 205,91 Z" fill="white" /><path d="M 200,41 L 199,42 L 198,42 L 197,43 L 196,43 L 195,44 L 194,44 L 192,46 L 191,46 L 190,47 L 189,47 L 188,48 L 187,48 L 185,50 L 184,50 L 183,51 L 182,51 L 180,53 L 179,53 L 178,54 L 177,54 L 176,55 L 175,55 L 173,57 L 172,57 L 171,58 L 170,58 L 168,60 L 167,60 L 166,61 L 165,61 L 164,62 L 163,62 L 161,64 L 160,64 L 159,65 L 158,65 L 156,67 L 155,67 L 154,68 L 153,68 L 152,69 L 151,69 L 149,71 L 148,71 L 147,72 L 146,72 L 145,73 L 144,73 L 142,75 L 141,75 L 140,76 L 139,76 L 138,77 L 137,77 L 135,79 L 134,79 L 133,80 L 132,80 L 131,81 L 130,81 L 128,83 L 127,83 L 126,84 L 125,84 L 123,86 L 122,86 L 121,87 L 120,87 L 119,88 L 118,88 L 116,90 L 115,90 L 114,91 L 113,91 L 112,92 L 111,92 L 109,94 L 108,94 L 107,95 L 106,95 L 104,97 L 103,97 L 102,98 L 101,98 L 100,99 L 99,99 L 97,101 L 96,101 L 95,102 L 94,102 L 92,104 L 91,104 L 90,105 L 89,105 L 88,106 L 87,106 L 86,107 L 85,107 L 83,109 L 82,109 L 79,112 L 79,114 L 78,115 L 78,199 L 79,200 L 79,202 L 80,203 L 80,204 L 81,205 L 82,205 L 83,206 L 84,206 L 86,208 L 87,208 L 88,209 L 89,209 L 91,211 L 92,211 L 93,212 L 94,212 L 95,213 L 96,213 L 98,215 L 99,215 L 100,216 L 101,216 L 102,217 L 103,217 L 105,219 L 106,219 L 107,220 L 108,220 L 110,222 L 111,222 L 112,223 L 113,223 L 114,224 L 115,224 L 117,226 L 118,226 L 119,227 L 120,227 L 121,228 L 122,228 L 124,230 L 125,230 L 126,231 L 127,231 L 129,233 L 130,233 L 131,234 L 132,234 L 133,235 L 134,235 L 136,237 L 137,237 L 138,238 L 139,238 L 140,239 L 141,239 L 143,241 L 144,241 L 145,242 L 146,242 L 147,243 L 148,243 L 150,245 L 151,245 L 152,246 L 153,246 L 155,248 L 156,248 L 157,249 L 158,249 L 159,250 L 160,250 L 161,251 L 162,251 L 164,253 L 165,253 L 167,255 L 168,255 L 169,256 L 170,256 L 171,257 L 172,257 L 174,259 L 175,259 L 176,260 L 177,260 L 178,261 L 179,261 L 181,263 L 182,263 L 183,264 L 184,264 L 185,265 L 186,265 L 188,267 L 189,267 L 190,268 L 191,268 L 193,270 L 194,270 L 195,271 L 196,271 L 197,272 L 198,272 L 199,273 L 204,273 L 205,272 L 206,272 L 207,271 L 208,271 L 210,269 L 211,269 L 212,268 L 213,268 L 214,267 L 215,267 L 217,265 L 218,265 L 219,264 L 220,264 L 221,263 L 222,263 L 224,261 L 225,261 L 227,259 L 228,259 L 229,258 L 230,258 L 231,257 L 232,257 L 233,256 L 234,256 L 235,255 L 236,255 L 238,253 L 239,253 L 241,251 L 242,251 L 243,250 L 244,250 L 245,249 L 246,249 L 247,248 L 248,248 L 250,246 L 251,246 L 252,245 L 253,245 L 255,243 L 256,243 L 257,242 L 258,242 L 259,241 L 260,241 L 262,239 L 263,239 L 264,238 L 265,238 L 266,237 L 267,237 L 269,235 L 270,235 L 271,234 L 272,234 L 274,232 L 275,232 L 276,231 L 277,231 L 279,229 L 280,229 L 280,228 L 281,227 L 281,225 L 282,224 L 282,194 L 281,195 L 280,195 L 279,196 L 278,196 L 276,198 L 275,198 L 274,199 L 273,199 L 271,201 L 270,201 L 269,202 L 268,202 L 267,203 L 266,203 L 264,205 L 263,205 L 262,206 L 261,206 L 260,207 L 259,207 L 257,209 L 256,209 L 255,210 L 254,210 L 252,212 L 251,212 L 250,213 L 249,213 L 248,214 L 247,214 L 245,216 L 244,216 L 243,217 L 242,217 L 240,219 L 239,219 L 238,220 L 237,220 L 236,221 L 235,221 L 233,223 L 232,223 L 231,224 L 230,224 L 228,226 L 227,226 L 226,227 L 225,227 L 224,228 L 223,228 L 221,230 L 220,230 L 219,231 L 218,231 L 217,232 L 216,232 L 215,233 L 214,233 L 212,235 L 211,235 L 210,236 L 209,236 L 207,238 L 206,238 L 205,239 L 204,239 L 202,241 L 201,241 L 199,239 L 198,239 L 197,238 L 196,238 L 194,236 L 193,236 L 192,235 L 191,235 L 190,234 L 189,234 L 187,232 L 186,232 L 185,231 L 184,231 L 183,230 L 182,230 L 180,228 L 179,228 L 178,227 L 177,227 L 175,225 L 174,225 L 173,224 L 172,224 L 171,223 L 170,223 L 169,222 L 168,222 L 166,220 L 165,220 L 164,219 L 163,219 L 161,217 L 160,217 L 159,216 L 158,216 L 156,214 L 155,214 L 154,213 L 153,213 L 152,212 L 151,212 L 149,210 L 148,210 L 147,209 L 146,209 L 145,208 L 144,208 L 142,206 L 141,206 L 140,205 L 139,205 L 137,203 L 136,203 L 135,202 L 134,202 L 133,201 L 132,201 L 130,199 L 129,199 L 128,198 L 127,198 L 126,197 L 125,197 L 123,195 L 122,195 L 121,194 L 120,194 L 119,193 L 118,193 L 116,191 L 115,191 L 114,190 L 113,190 L 111,188 L 110,188 L 109,187 L 108,187 L 107,186 L 107,129 L 109,127 L 110,127 L 112,125 L 113,125 L 114,124 L 115,124 L 116,123 L 117,123 L 118,122 L 119,122 L 121,120 L 122,120 L 123,119 L 124,119 L 126,117 L 127,117 L 128,116 L 129,116 L 131,114 L 132,114 L 133,113 L 134,113 L 135,112 L 136,112 L 138,110 L 139,110 L 140,109 L 141,109 L 142,108 L 143,108 L 145,106 L 146,106 L 147,105 L 148,105 L 149,104 L 150,104 L 152,102 L 153,102 L 154,101 L 155,101 L 157,99 L 158,99 L 159,98 L 160,98 L 161,97 L 162,97 L 163,96 L 164,96 L 166,94 L 167,94 L 168,93 L 169,93 L 171,91 L 172,91 L 173,90 L 174,90 L 175,89 L 176,89 L 178,87 L 179,87 L 180,86 L 181,86 L 183,84 L 184,84 L 185,83 L 186,83 L 187,82 L 188,82 L 190,80 L 191,80 L 192,79 L 193,79 L 195,77 L 196,77 L 197,76 L 198,76 L 199,75 L 200,75 L 201,74 L 203,74 L 204,75 L 205,75 L 206,76 L 207,76 L 208,77 L 209,77 L 211,79 L 212,79 L 213,80 L 214,80 L 216,82 L 217,82 L 218,83 L 219,83 L 220,84 L 221,84 L 223,86 L 224,86 L 225,87 L 226,87 L 227,88 L 228,88 L 230,90 L 231,90 L 232,91 L 233,91 L 235,93 L 236,93 L 237,94 L 238,94 L 239,95 L 240,95 L 242,97 L 243,97 L 244,98 L 245,98 L 246,99 L 247,99 L 249,101 L 250,101 L 251,102 L 252,102 L 254,104 L 255,104 L 256,105 L 257,105 L 258,106 L 259,106 L 260,107 L 261,107 L 263,109 L 264,109 L 265,110 L 266,110 L 268,112 L 269,112 L 270,113 L 271,113 L 273,115 L 274,115 L 275,116 L 276,116 L 277,117 L 278,117 L 280,119 L 281,119 L 282,120 L 283,120 L 284,121 L 285,121 L 287,123 L 288,123 L 289,124 L 290,124 L 291,125 L 292,125 L 294,127 L 295,127 L 296,128 L 297,128 L 299,130 L 300,130 L 301,131 L 302,131 L 303,132 L 304,132 L 306,134 L 307,134 L 308,135 L 309,135 L 310,136 L 311,136 L 313,138 L 314,138 L 315,139 L 316,139 L 318,141 L 319,141 L 320,142 L 321,142 L 323,144 L 324,144 L 324,112 L 322,110 L 322,109 L 321,109 L 320,108 L 319,108 L 317,106 L 316,106 L 315,105 L 314,105 L 312,103 L 311,103 L 310,102 L 309,102 L 308,101 L 307,101 L 305,99 L 304,99 L 303,98 L 302,98 L 300,96 L 299,96 L 298,95 L 297,95 L 296,94 L 295,94 L 293,92 L 292,92 L 291,91 L 290,91 L 289,90 L 288,90 L 286,88 L 285,88 L 284,87 L 283,87 L 282,86 L 281,86 L 279,84 L 278,84 L 277,83 L 276,83 L 274,81 L 273,81 L 272,80 L 271,80 L 269,78 L 267,78 L 265,76 L 264,76 L 263,75 L 262,75 L 260,73 L 259,73 L 258,72 L 257,72 L 255,70 L 254,70 L 253,69 L 252,69 L 251,68 L 250,68 L 248,66 L 247,66 L 246,65 L 245,65 L 244,64 L 243,64 L 241,62 L 240,62 L 239,61 L 238,61 L 236,59 L 235,59 L 234,58 L 233,58 L 232,57 L 231,57 L 229,55 L 228,55 L 227,54 L 226,54 L 224,52 L 223,52 L 222,51 L 221,51 L 220,50 L 219,50 L 217,48 L 216,48 L 215,47 L 214,47 L 213,46 L 212,46 L 210,44 L 209,44 L 208,43 L 207,43 L 206,42 L 205,42 L 204,41 Z" fill="white" /></svg>